<svg xmlns="http://www.w3.org/2000/svg" width="720" height="1600" viewBox="0 0 720 1600">
  <defs>
    <linearGradient id="bg" x1="0" y1="0" x2="0" y2="1">
      <stop offset="0%" stop-color="#e3f7fb" />
      <stop offset="100%" stop-color="#f7fcff" />
    </linearGradient>
    <linearGradient id="header" x1="0" y1="0" x2="1" y2="0">
      <stop offset="0%" stop-color="#1ec8c1" />
      <stop offset="100%" stop-color="#1aa7a7" />
    </linearGradient>
  </defs>
  <rect width="720" height="1600" fill="url(#bg)"/>
  <rect x="46" y="120" width="628" height="1360" rx="52" fill="#fff" stroke="#d1e4ed" stroke-width="6"/>
  <rect x="120" y="180" width="480" height="120" rx="28" fill="url(#header)" opacity="0.2"/>
  <text x="360" y="250" fill="#1f5d76" font-size="40" font-family="Cairo" text-anchor="middle" font-weight="700">GlobXpay</text>
  <text x="360" y="310" fill="#29607a" font-size="24" font-family="Cairo" text-anchor="middle">إنشاء الحساب الرئيسي</text>
  <g transform="translate(120 360)">
    <line x1="24" y1="40" x2="456" y2="40" stroke="#cedee6" stroke-width="10" stroke-linecap="round"/>
    <circle cx="24" cy="40" r="34" fill="#fff" stroke="#2fb4b5" stroke-width="8"/>
    <text x="24" y="50" fill="#2fb4b5" font-size="26" font-family="Cairo" text-anchor="middle" font-weight="700">1</text>
    <circle cx="172" cy="40" r="34" fill="#fff" stroke="#2fb4b5" stroke-width="8"/>
    <text x="172" y="50" fill="#2fb4b5" font-size="26" font-family="Cairo" text-anchor="middle" font-weight="700">2</text>
    <circle cx="320" cy="40" r="34" fill="#fff" stroke="#a7cfd4" stroke-width="8"/>
    <text x="320" y="50" fill="#9bbcc1" font-size="26" font-family="Cairo" text-anchor="middle" font-weight="700">3</text>
    <circle cx="468" cy="40" r="34" fill="#fff" stroke="#a7cfd4" stroke-width="8"/>
    <text x="468" y="50" fill="#9bbcc1" font-size="26" font-family="Cairo" text-anchor="middle" font-weight="700">4</text>
  </g>
  <text x="360" y="540" fill="#1f5d76" font-size="28" font-family="Cairo" text-anchor="middle" font-weight="700">لقطة شاشة توضح إدخال رقم الهاتف</text>
  <rect x="150" y="640" width="420" height="80" rx="18" fill="#f1f6f8" stroke="#d1e4ed" stroke-width="4"/>
  <text x="360" y="690" fill="#8499a5" font-size="26" font-family="Cairo" text-anchor="middle">+962 • أدخل رقم هاتفك</text>
  <rect x="150" y="1320" width="420" height="90" rx="22" fill="#1ec8c1"/>
  <text x="360" y="1380" fill="#fff" font-size="28" font-family="Cairo" text-anchor="middle" font-weight="700">التالي</text>
</svg>
